/* XPM */
static char * iqpuzzle_xpm[] = {
"32 32 7 1",
" 	c None",
".	c #FFFF00",
"+	c #0000FF",
"@	c #C05800",
"#	c #FF00FF",
"$	c #FF8000",
"%	c #00C0C0",
"........                        ",
"........                        ",
"........                        ",
"........                        ",
"........++++++++++++            ",
"........++++++++++++            ",
"........++++++++++++            ",
"........++++++++++++            ",
"....++++++++++++++++            ",
"....++++++++++++++++            ",
"....++++++++++++++++            ",
"....++++++++++++++++            ",
"....++++++++++++++++            ",
"....++++++++++++++++            ",
"....@@@@@@@@@@@@@@@@@@@@        ",
"....@@@@@@@@@@@@@@@@@@@@        ",
"....@@@@@@@@@@@@@@@@@@@@        ",
"....@@@@@@@@@@@@@@@@@@@@        ",
"####$$$$$$$$$$$$$$$$@@@@    %%%%",
"####$$$$$$$$$$$$$$$$@@@@    %%%%",
"####$$$$$$$$$$$$$$$$@@@@    %%%%",
"####$$$$$$$$$$$$$$$$@@@@    %%%%",
"####$$$$$$$$$$$$$$$$@@@@    %%%%",
"####$$$$$$$$$$$$$$$$@@@@    %%%%",
"####$$$$$$$$$$$$$$$$@@@@    %%%%",
"####$$$$$$$$$$$$$$$$@@@@    %%%%",
"####$$$$$$$$$$$$$$$$@@@@    %%%%",
"####$$$$$$$$$$$$$$$$@@@@    %%%%",
"########$$$$$$$$$$$$%%%%%%%%%%%%",
"########$$$$$$$$$$$$%%%%%%%%%%%%",
"########$$$$$$$$$$$$%%%%%%%%%%%%",
"########$$$$$$$$$$$$%%%%%%%%%%%%"};
