/* XPM */
static char * iqpuzzle2_xpm[] = {
"64 64 7 1",
" 	c None",
".	c #8F5902",
"+	c #3465A4",
"@	c #FCE94F",
"#	c #FCAF3E",
"$	c #A40000",
"%	c #73D216",
"..................                                              ",
"..................                                              ",
"..................                                              ",
"..................                                              ",
"..................                                              ",
"..................                                              ",
"..................                                              ",
"..................                                              ",
"..................                                              ",
"..................++++++++++++++++++                            ",
"..................++++++++++++++++++                            ",
"..................++++++++++++++++++                            ",
"..................++++++++++++++++++                            ",
"..................++++++++++++++++++                            ",
"..................++++++++++++++++++                            ",
"..................++++++++++++++++++                            ",
"..................++++++++++++++++++                            ",
"..................++++++++++++++++++                            ",
".........+++++++++++++++++++++++++++                            ",
".........+++++++++++++++++++++++++++                            ",
".........+++++++++++++++++++++++++++                            ",
".........+++++++++++++++++++++++++++                            ",
".........+++++++++++++++++++++++++++                            ",
".........+++++++++++++++++++++++++++                            ",
".........+++++++++++++++++++++++++++                            ",
".........+++++++++++++++++++++++++++                            ",
".........+++++++++++++++++++++++++++                            ",
".........@@@@@@@@@@@@@@@@@@@@@@@@@@@@@@@@@@@@                   ",
".........@@@@@@@@@@@@@@@@@@@@@@@@@@@@@@@@@@@@                   ",
".........@@@@@@@@@@@@@@@@@@@@@@@@@@@@@@@@@@@@                   ",
".........@@@@@@@@@@@@@@@@@@@@@@@@@@@@@@@@@@@@                   ",
".........@@@@@@@@@@@@@@@@@@@@@@@@@@@@@@@@@@@@                   ",
".........@@@@@@@@@@@@@@@@@@@@@@@@@@@@@@@@@@@@                   ",
".........@@@@@@@@@@@@@@@@@@@@@@@@@@@@@@@@@@@@                   ",
".........@@@@@@@@@@@@@@@@@@@@@@@@@@@@@@@@@@@@                   ",
".........@@@@@@@@@@@@@@@@@@@@@@@@@@@@@@@@@@@@                   ",
"#########$$$$$$$$$$$$$$$$$$$$$$$$$$$@@@@@@@@@          %%%%%%%%%",
"#########$$$$$$$$$$$$$$$$$$$$$$$$$$$@@@@@@@@@          %%%%%%%%%",
"#########$$$$$$$$$$$$$$$$$$$$$$$$$$$@@@@@@@@@          %%%%%%%%%",
"#########$$$$$$$$$$$$$$$$$$$$$$$$$$$@@@@@@@@@          %%%%%%%%%",
"#########$$$$$$$$$$$$$$$$$$$$$$$$$$$@@@@@@@@@          %%%%%%%%%",
"#########$$$$$$$$$$$$$$$$$$$$$$$$$$$@@@@@@@@@          %%%%%%%%%",
"#########$$$$$$$$$$$$$$$$$$$$$$$$$$$@@@@@@@@@          %%%%%%%%%",
"#########$$$$$$$$$$$$$$$$$$$$$$$$$$$@@@@@@@@@          %%%%%%%%%",
"#########$$$$$$$$$$$$$$$$$$$$$$$$$$$@@@@@@@@@          %%%%%%%%%",
"#########$$$$$$$$$$$$$$$$$$$$$$$$$$$@@@@@@@@@          %%%%%%%%%",
"#########$$$$$$$$$$$$$$$$$$$$$$$$$$$@@@@@@@@@          %%%%%%%%%",
"#########$$$$$$$$$$$$$$$$$$$$$$$$$$$@@@@@@@@@          %%%%%%%%%",
"#########$$$$$$$$$$$$$$$$$$$$$$$$$$$@@@@@@@@@          %%%%%%%%%",
"#########$$$$$$$$$$$$$$$$$$$$$$$$$$$@@@@@@@@@          %%%%%%%%%",
"#########$$$$$$$$$$$$$$$$$$$$$$$$$$$@@@@@@@@@          %%%%%%%%%",
"#########$$$$$$$$$$$$$$$$$$$$$$$$$$$@@@@@@@@@          %%%%%%%%%",
"#########$$$$$$$$$$$$$$$$$$$$$$$$$$$@@@@@@@@@          %%%%%%%%%",
"#########$$$$$$$$$$$$$$$$$$$$$$$$$$$@@@@@@@@@          %%%%%%%%%",
"#########$$$$$$$$$$$$$$$$$$$$$$$$$$$%%%%%%%%%%%%%%%%%%%%%%%%%%%%",
"##################$$$$$$$$$$$$$$$$$$%%%%%%%%%%%%%%%%%%%%%%%%%%%%",
"##################$$$$$$$$$$$$$$$$$$%%%%%%%%%%%%%%%%%%%%%%%%%%%%",
"##################$$$$$$$$$$$$$$$$$$%%%%%%%%%%%%%%%%%%%%%%%%%%%%",
"##################$$$$$$$$$$$$$$$$$$%%%%%%%%%%%%%%%%%%%%%%%%%%%%",
"##################$$$$$$$$$$$$$$$$$$%%%%%%%%%%%%%%%%%%%%%%%%%%%%",
"##################$$$$$$$$$$$$$$$$$$%%%%%%%%%%%%%%%%%%%%%%%%%%%%",
"##################$$$$$$$$$$$$$$$$$$%%%%%%%%%%%%%%%%%%%%%%%%%%%%",
"##################$$$$$$$$$$$$$$$$$$%%%%%%%%%%%%%%%%%%%%%%%%%%%%",
"##################$$$$$$$$$$$$$$$$$$%%%%%%%%%%%%%%%%%%%%%%%%%%%%"};
