/* XPM */
static char * iqpuzzle2_xpm[] = {
"32 32 7 1",
" 	c None",
".	c #8E5801",
"+	c #3364A3",
"@	c #FBE84E",
"#	c #FBAE3D",
"$	c #A30000",
"%	c #72D115",
".........                       ",
".........                       ",
".........                       ",
".........                       ",
".........+++++++++              ",
".........+++++++++              ",
".........+++++++++              ",
".........+++++++++              ",
".........+++++++++              ",
".....+++++++++++++              ",
".....+++++++++++++              ",
".....+++++++++++++              ",
".....+++++++++++++              ",
".....@@@@@@@@@@@@@@@@@@         ",
".....@@@@@@@@@@@@@@@@@@         ",
".....@@@@@@@@@@@@@@@@@@         ",
".....@@@@@@@@@@@@@@@@@@         ",
".....@@@@@@@@@@@@@@@@@@         ",
"#####$$$$$$$$$$$$$@@@@@    %%%%%",
"#####$$$$$$$$$$$$$@@@@@    %%%%%",
"#####$$$$$$$$$$$$$@@@@@    %%%%%",
"#####$$$$$$$$$$$$$@@@@@    %%%%%",
"#####$$$$$$$$$$$$$@@@@@    %%%%%",
"#####$$$$$$$$$$$$$@@@@@    %%%%%",
"#####$$$$$$$$$$$$$@@@@@    %%%%%",
"#####$$$$$$$$$$$$$@@@@@    %%%%%",
"#####$$$$$$$$$$$$$@@@@@    %%%%%",
"##########$$$$$$$$%%%%%%%%%%%%%%",
"##########$$$$$$$$%%%%%%%%%%%%%%",
"##########$$$$$$$$%%%%%%%%%%%%%%",
"##########$$$$$$$$%%%%%%%%%%%%%%",
"##########$$$$$$$$%%%%%%%%%%%%%%"};
